<svg width="36" height="36" viewBox="0 0 36 36" fill="none" xmlns="http://www.w3.org/2000/svg">
<path d="M2.75439 13.5005V13.1636L14.7554 1.0459V13.5005H2.75439Z" fill="#CFF09E"/>
<path d="M33.2456 35.9997H2.75398C2.17643 35.9997 1.70801 35.5314 1.70801 34.9537V20.1573C1.70801 19.5796 2.17636 19.1113 2.75398 19.1113C3.33159 19.1113 3.79995 19.5796 3.79995 20.1573V33.9077H32.1995V20.4658C32.1995 19.8881 32.6679 19.4198 33.2455 19.4198C33.823 19.4198 34.2915 19.8881 34.2915 20.4658V34.9537C34.2915 35.5314 33.8231 35.9997 33.2456 35.9997Z" fill="#507C5C"/>
<path d="M33.2456 0H14.755C14.7423 0 14.7297 0.00147656 14.7169 0.00189844C14.7051 0.00232031 14.6935 0.0028125 14.6817 0.00365625C14.6365 0.00682031 14.5916 0.0119531 14.5476 0.0208125C14.5468 0.0210234 14.5459 0.0213047 14.545 0.0214453C14.5015 0.0303047 14.459 0.0428906 14.4171 0.0572344C14.4062 0.0610313 14.3955 0.0648984 14.3847 0.0689766C14.3435 0.0845859 14.303 0.101953 14.264 0.122625C14.2627 0.123258 14.2614 0.12375 14.2601 0.124383C14.22 0.145898 14.1819 0.17093 14.1447 0.197719C14.1355 0.204398 14.1263 0.211289 14.1171 0.21832C14.0803 0.246656 14.0446 0.276609 14.0117 0.309938L2.01084 12.4276C1.98623 12.4524 1.96317 12.4784 1.9413 12.5053C1.92717 12.5227 1.91487 12.5407 1.90207 12.5587C1.89518 12.5684 1.88752 12.5778 1.88098 12.5878C1.86614 12.6103 1.85306 12.6335 1.84005 12.6567C1.83661 12.663 1.83253 12.669 1.82916 12.6754C1.81643 12.6994 1.80532 12.7241 1.79463 12.7489C1.79189 12.7552 1.78866 12.7613 1.78605 12.7676C1.77635 12.7912 1.76827 12.8154 1.76046 12.8395C1.75786 12.8476 1.75448 12.8556 1.75209 12.8639C1.74548 12.8862 1.74035 12.9087 1.73522 12.9313C1.73283 12.942 1.72966 12.9525 1.72755 12.9632C1.72348 12.9842 1.72095 13.0053 1.71813 13.0264C1.71645 13.039 1.71405 13.0516 1.71293 13.0643C1.71096 13.0852 1.71054 13.1063 1.70977 13.1273C1.70934 13.1394 1.70801 13.1515 1.70801 13.1637V13.5006C1.70801 14.0783 2.17636 14.5466 2.75398 14.5466H14.755C15.3326 14.5466 15.801 14.0783 15.801 13.5006V2.09194H32.1994V13.3358C32.1994 13.9134 32.6678 14.3817 33.2454 14.3817C33.823 14.3817 34.2914 13.9134 34.2914 13.3358V1.04597C34.2915 0.468281 33.8231 0 33.2456 0ZM4.92832 12.4546L13.709 3.58861V12.4546H4.92832Z" fill="#507C5C"/>
<path d="M21.2764 30.5068L14.0253 18.9941L7.8208 30.5068H21.2764Z" fill="#CFF09E"/>
<path d="M29.1034 30.0164L24.0804 20.5501C23.9021 20.2141 23.5554 20.0013 23.1752 19.9944C22.7991 19.9897 22.4408 20.1879 22.2506 20.5173L20.9672 22.7405C20.6782 23.2408 20.8497 23.8805 21.35 24.1693C21.8505 24.4582 22.4901 24.2867 22.7788 23.7865L23.118 23.1991L26.4406 29.4608H21.8539L14.9105 18.4367C14.7123 18.1221 14.3637 17.937 13.99 17.9488C13.6182 17.9613 13.2812 18.1704 13.1047 18.4979L6.90009 30.0105C6.72544 30.3346 6.73401 30.7267 6.9228 31.0429C7.11159 31.3591 7.45261 31.5528 7.82083 31.5528H17.846H21.2765H28.1796C28.5466 31.5528 28.8868 31.3604 29.0759 31.0459C29.265 30.7312 29.2756 30.3406 29.1034 30.0164ZM17.8459 29.4608H9.57274L14.0956 21.0683L19.3815 29.4608H17.8459Z" fill="#507C5C"/>
<path d="M23.0121 16.9861C25.0278 16.9861 26.6619 15.352 26.6619 13.3363C26.6619 11.3206 25.0278 9.68652 23.0121 9.68652C20.9964 9.68652 19.3623 11.3206 19.3623 13.3363C19.3623 15.352 20.9964 16.9861 23.0121 16.9861Z" fill="#CFF09E"/>
<path d="M23.0126 18.0313C20.4234 18.0313 18.3169 15.9248 18.3169 13.3355C18.3169 10.7463 20.4234 8.63965 23.0126 8.63965C25.6019 8.63965 27.7085 10.7462 27.7085 13.3355C27.7085 15.9249 25.6019 18.0313 23.0126 18.0313ZM23.0126 10.7317C21.5769 10.7317 20.4088 11.8998 20.4088 13.3357C20.4088 14.7715 21.5769 15.9395 23.0126 15.9395C24.4484 15.9395 25.6166 14.7715 25.6166 13.3357C25.6165 11.8998 24.4484 10.7317 23.0126 10.7317Z" fill="#507C5C"/>
</svg>
