<svg width="36" height="36" viewBox="0 0 36 36" fill="none" xmlns="http://www.w3.org/2000/svg">
<path d="M26.101 0H3.89941V36H32.1002V5.99925L26.101 0Z" fill="#E8E8E8"/>
<path d="M27.3111 17.8027C26.8785 17.0317 25.3839 16.7895 24.6981 16.6805C24.1576 16.5945 23.6059 16.5689 23.0592 16.5694C22.63 16.5665 22.207 16.5877 21.7895 16.6114C21.6356 16.6217 21.4833 16.635 21.3311 16.6482C21.1751 16.4867 21.0243 16.3199 20.8783 16.1493C19.9498 15.0501 19.2001 13.8036 18.5892 12.5083C18.7514 11.8824 18.8812 11.2292 18.9595 10.5509C19.1026 9.31281 19.1518 7.90184 18.6878 6.72146C18.5277 6.31407 18.1006 5.8181 17.6078 6.06508C17.0413 6.3491 16.882 7.15379 16.8358 7.72421C16.7986 8.18527 16.8246 8.64752 16.902 9.10086C16.9809 9.55729 17.1078 9.99068 17.246 10.4235C17.375 10.8203 17.5171 11.214 17.672 11.6041C17.5737 11.9112 17.4694 12.2129 17.3598 12.5069C17.1042 13.1769 16.8279 13.8135 16.5622 14.4258C16.4221 14.7294 16.2849 15.0266 16.1508 15.3172C15.7262 16.2498 15.2652 17.1654 14.7479 18.0505C13.5411 18.4762 12.4582 18.9697 11.5589 19.5496C11.0765 19.8613 10.6503 20.1998 10.2954 20.5711C9.96035 20.9216 9.61981 21.3765 9.59001 21.8801C9.57327 22.1643 9.68583 22.4401 9.91868 22.6088C10.2389 22.848 10.6633 22.8321 11.0348 22.7542C12.2519 22.4989 13.1865 21.4527 13.9824 20.571C14.5306 19.9636 15.1546 19.1924 15.8073 18.2597C15.8087 18.2576 15.8101 18.2555 15.8117 18.2533C16.9311 17.9062 18.1495 17.6132 19.4425 17.3978C20.0333 17.2998 20.6397 17.2197 21.2582 17.1634C21.6931 17.5708 22.1631 17.9417 22.6758 18.2515C23.0751 18.4972 23.4998 18.7046 23.9444 18.8594C24.3939 19.0062 24.8462 19.1262 25.3132 19.202C25.549 19.2358 25.7902 19.2511 26.0366 19.2418C26.5864 19.221 27.3757 19.0102 27.4275 18.343C27.4434 18.1387 27.3993 17.9597 27.3111 17.8027ZM14.1467 19.0269C13.8892 19.4259 13.6408 19.7847 13.4067 20.1004C12.8336 20.8803 12.179 21.8066 11.2312 22.1529C11.0512 22.2187 10.8142 22.2866 10.5644 22.2719C10.3419 22.2588 10.1224 22.1606 10.1325 21.908C10.1375 21.7757 10.2022 21.607 10.3015 21.4412C10.4101 21.2594 10.5447 21.0927 10.6904 20.9394C11.0025 20.6115 11.3972 20.2936 11.8513 19.9992C12.5477 19.5474 13.3791 19.1408 14.3058 18.7779C14.2525 18.8622 14.1993 18.946 14.1467 19.0269ZM17.379 9.02202C17.3075 8.60477 17.2967 8.18171 17.3406 7.77491C17.3625 7.57151 17.4039 7.37298 17.4639 7.18692C17.5147 7.02899 17.6244 6.64357 17.7994 6.59406C18.088 6.51236 18.1767 7.13182 18.2093 7.30708C18.3953 8.30401 18.2314 9.41266 18.0083 10.3906C17.9728 10.5461 17.9333 10.6992 17.8928 10.8517C17.8237 10.6616 17.7578 10.4709 17.6971 10.2792C17.5665 9.86066 17.447 9.43724 17.379 9.02202ZM19.3599 16.892C18.2758 17.0677 17.2446 17.298 16.2752 17.5697C16.3919 17.5371 16.9253 16.5263 17.0443 16.3165C17.6048 15.3292 18.0634 14.2929 18.3929 13.2059C18.9747 14.3566 19.6809 15.4574 20.5484 16.4372C20.6283 16.5262 20.7095 16.614 20.7921 16.7008C20.306 16.7532 19.8276 16.8169 19.3599 16.892ZM26.6913 18.2805C26.6516 18.4948 26.1939 18.6174 25.9803 18.6511C25.3491 18.7504 24.6813 18.6709 24.0771 18.468C23.6626 18.3288 23.2628 18.1393 22.883 17.9114C22.5054 17.6833 22.1522 17.4149 21.8219 17.119C22.2291 17.0946 22.6412 17.0785 23.0554 17.0864C23.4696 17.0905 23.8869 17.1114 24.2992 17.1652C25.0723 17.2514 25.9386 17.5168 26.5471 18.0185C26.6669 18.1174 26.7052 18.2048 26.6913 18.2805Z" fill="#FB3449"/>
<path d="M27.0294 2.99968H3.89941V0H26.101L27.0294 2.99968Z" fill="#FB3449"/>
<path d="M15.0606 28.6342C15.0606 29.2708 14.873 29.7623 14.4976 30.1091C14.1221 30.4559 13.589 30.6293 12.8979 30.6293H12.4654V32.5192H10.9263V26.8223H12.898C13.6176 26.8223 14.158 26.9795 14.519 27.2938C14.8801 27.6081 15.0606 28.0549 15.0606 28.6342ZM12.4655 29.3745H12.7461C12.9772 29.3745 13.161 29.3097 13.2975 29.1797C13.4339 29.0498 13.5021 28.8705 13.5021 28.6419C13.5021 28.2575 13.289 28.0652 12.863 28.0652H12.4655V29.3745Z" fill="#A4A9AD"/>
<path d="M20.8046 29.5499C20.8046 30.5007 20.5428 31.2333 20.0194 31.7476C19.496 32.262 18.76 32.5192 17.8119 32.5192H15.9688V26.8223H17.9405C18.8549 26.8223 19.5608 27.0561 20.0583 27.5237C20.5557 27.9912 20.8046 28.6667 20.8046 29.5499ZM19.207 29.6045C19.207 29.0823 19.1037 28.6954 18.8972 28.4433C18.6907 28.1913 18.377 28.0653 17.9561 28.0653H17.5081V31.2567H17.851C18.3187 31.2567 18.6615 31.1209 18.8797 30.8494C19.0979 30.5781 19.207 30.1631 19.207 29.6045Z" fill="#A4A9AD"/>
<path d="M23.341 32.5192H21.8252V26.8223H25.192V28.0575H23.341V29.1447H25.0478V30.3799H23.341V32.5192Z" fill="#A4A9AD"/>
<path d="M26.1011 5.99925H32.1003L26.1011 0V5.99925Z" fill="#D1D3D3"/>
</svg>
