<svg width="36" height="36" viewBox="0 0 36 36" fill="none" xmlns="http://www.w3.org/2000/svg">
<path d="M32.4069 3.375H10.9183C10.7422 3.37485 10.5678 3.40939 10.405 3.47665C10.2423 3.5439 10.0944 3.64256 9.96974 3.76698C9.84511 3.8914 9.74621 4.03914 9.67868 4.20178C9.61115 4.36443 9.57632 4.53877 9.57617 4.71488V10.6875L22.0288 14.3438L33.7502 10.6875V4.71488C33.75 4.53868 33.7152 4.36424 33.6476 4.20152C33.58 4.03881 33.481 3.89101 33.3562 3.76658C33.2315 3.64214 33.0834 3.54351 32.9205 3.47633C32.7576 3.40914 32.5831 3.37471 32.4069 3.375Z" fill="#41A5EE"/>
<path d="M33.7502 10.6875H9.57617V18L22.0288 20.1938L33.7502 18V10.6875Z" fill="#2B7CD3"/>
<path d="M9.57617 18V25.3125L21.2964 26.775L33.7502 25.3125V18H9.57617Z" fill="#185ABD"/>
<path d="M10.9183 32.625H32.4058C32.5821 32.6254 32.7567 32.5911 32.9197 32.524C33.0828 32.4569 33.2309 32.3583 33.3558 32.2338C33.4807 32.1094 33.5798 31.9615 33.6474 31.7987C33.7151 31.636 33.75 31.4614 33.7502 31.2851V25.3125H9.57617V31.2851C9.57632 31.4612 9.61115 31.6356 9.67868 31.7982C9.74621 31.9609 9.84511 32.1086 9.96974 32.233C10.0944 32.3574 10.2423 32.4561 10.405 32.5234C10.5678 32.5906 10.7422 32.6251 10.9183 32.625Z" fill="#103F91"/>
<path opacity="0.1" d="M18.4884 9.22461H9.57617V27.5059H18.4884C18.8435 27.5041 19.1837 27.3625 19.4351 27.1117C19.6865 26.8609 19.829 26.5211 19.8317 26.166V10.5645C19.829 10.2094 19.6865 9.8696 19.4351 9.6188C19.1837 9.368 18.8435 9.22638 18.4884 9.22461Z" fill="black"/>
<path opacity="0.2" d="M17.756 9.95605H9.57617V28.2373H17.756C18.1112 28.2355 18.4513 28.0939 18.7027 27.8431C18.9542 27.5923 19.0966 27.2525 19.0993 26.8974V11.2959C19.0966 10.9408 18.9542 10.601 18.7027 10.3502C18.4513 10.0994 18.1112 9.95782 17.756 9.95605Z" fill="black"/>
<path opacity="0.2" d="M17.756 9.95605H9.57617V26.7748H17.756C18.1112 26.773 18.4513 26.6314 18.7027 26.3806C18.9542 26.1298 19.0966 25.79 19.0993 25.4349V11.2959C19.0966 10.9408 18.9542 10.601 18.7027 10.3502C18.4513 10.0994 18.1112 9.95782 17.756 9.95605Z" fill="black"/>
<path opacity="0.2" d="M17.0237 9.95605H9.57617V26.7748H17.0237C17.3788 26.773 17.7189 26.6314 17.9704 26.3806C18.2218 26.1298 18.3643 25.79 18.3669 25.4349V11.2959C18.3643 10.9408 18.2218 10.601 17.9704 10.3502C17.7189 10.0994 17.3788 9.95782 17.0237 9.95605Z" fill="black"/>
<path d="M3.59325 9.95606H17.0235C17.3793 9.95576 17.7206 10.0967 17.9725 10.348C18.2243 10.5992 18.3662 10.9402 18.3667 11.2959V24.7037C18.3662 25.0594 18.2243 25.4004 17.9725 25.6517C17.7206 25.9029 17.3793 26.0439 17.0235 26.0436H3.59325C3.41705 26.0439 3.24252 26.0094 3.07964 25.9422C2.91676 25.875 2.76871 25.7764 2.64396 25.652C2.51922 25.5275 2.42021 25.3797 2.35262 25.217C2.28502 25.0543 2.25015 24.8799 2.25 24.7037V11.2959C2.25015 11.1197 2.28502 10.9453 2.35262 10.7826C2.42021 10.6199 2.51922 10.4721 2.64396 10.3476C2.76871 10.2232 2.91676 10.1246 3.07964 10.0574C3.24252 9.99019 3.41705 9.95576 3.59325 9.95606Z" fill="url(#paint0_linear_2808_63417)"/>
<path d="M7.76262 20.2363C7.78849 20.4433 7.80649 20.6233 7.81437 20.7774H7.84587C7.85712 20.6311 7.88187 20.4545 7.91899 20.2486C7.95612 20.0428 7.98874 19.8684 8.01912 19.7255L9.43099 13.6426H11.258L12.7205 19.6344C12.8057 20.005 12.8666 20.3808 12.9027 20.7594H12.9275C12.9544 20.3909 13.0051 20.0245 13.0794 19.6625L14.2482 13.6348H15.9099L13.8579 22.3513H11.915L10.5234 16.5845C10.4829 16.418 10.4371 16.2013 10.3861 15.9343C10.3351 15.6673 10.3036 15.4723 10.2916 15.3493H10.268C10.2522 15.491 10.2207 15.7014 10.1735 15.9804C10.1262 16.2605 10.0891 16.4664 10.061 16.6014L8.75262 22.3546H6.77712L4.71387 13.6426H6.40137L7.67374 19.7379C7.71172 19.9024 7.74138 20.0688 7.76262 20.2363Z" fill="white"/>
<defs>
<linearGradient id="paint0_linear_2808_63417" x1="5.05575" y1="8.90306" x2="15.561" y2="27.0966" gradientUnits="userSpaceOnUse">
<stop stop-color="#2368C4"/>
<stop offset="0.5" stop-color="#1A5DBE"/>
<stop offset="1" stop-color="#1146AC"/>
</linearGradient>
</defs>
</svg>
